<?xml version="1.0" encoding="UTF-8" standalone="no"?><svg xmlns="http://www.w3.org/2000/svg" xmlns:xlink="http://www.w3.org/1999/xlink" contentScriptType="application/ecmascript" contentStyleType="text/css" height="832px" preserveAspectRatio="none" style="width:539px;height:832px;background:#FEFEFE;" version="1.1" viewBox="0 0 539 832" width="539.2px" zoomAndPan="magnify"><defs><filter height="300%" id="fjukspz2sknvx" width="300%" x="-1" y="-1"><feGaussianBlur result="blurOut" stdDeviation="3.2"/><feColorMatrix in="blurOut" result="blurOut2" type="matrix" values="0 0 0 0 0 0 0 0 0 0 0 0 0 0 0 0 0 0 .4 0"/><feOffset dx="6.4" dy="6.4" in="blurOut2" result="blurOut3"/><feBlend in="SourceGraphic" in2="blurOut3" mode="normal"/></filter></defs><g><rect fill="#FEFEFE" filter="url(#fjukspz2sknvx)" height="491.2963" style="stroke: #000000; stroke-width: 3.2;" width="500.8" x="20.8" y="92.9087"/><rect fill="#FEFEFE" filter="url(#fjukspz2sknvx)" height="132.9889" style="stroke: #000000; stroke-width: 3.2;" width="468.8" x="36.8" y="338.5568"/><line style="stroke: #A80036; stroke-width: 1.6; stroke-dasharray: 5.0,5.0;" x1="110.4" x2="110.4" y1="65.7087" y2="763.5938"/><line style="stroke: #A80036; stroke-width: 1.6; stroke-dasharray: 5.0,5.0;" x1="424" x2="424" y1="65.7087" y2="763.5938"/><rect fill="#FEFECE" filter="url(#fjukspz2sknvx)" height="52.9087" style="stroke: #A80036; stroke-width: 2.4000000000000004;" width="108.8" x="52.8" y="4.8"/><text fill="#000000" font-family="sans-serif" font-size="22.4" lengthAdjust="spacingAndGlyphs" textLength="86.4" x="64" y="39.9455">SENDER</text><rect fill="#FEFECE" filter="url(#fjukspz2sknvx)" height="52.9087" style="stroke: #A80036; stroke-width: 2.4000000000000004;" width="108.8" x="52.8" y="761.9938"/><text fill="#000000" font-family="sans-serif" font-size="22.4" lengthAdjust="spacingAndGlyphs" textLength="86.4" x="64" y="797.1393">SENDER</text><rect fill="#FEFECE" filter="url(#fjukspz2sknvx)" height="52.9087" style="stroke: #A80036; stroke-width: 2.4000000000000004;" width="124.8" x="358.4" y="4.8"/><text fill="#000000" font-family="sans-serif" font-size="22.4" lengthAdjust="spacingAndGlyphs" textLength="102.4" x="369.6" y="39.9455">RECEIVER</text><rect fill="#FEFECE" filter="url(#fjukspz2sknvx)" height="52.9087" style="stroke: #A80036; stroke-width: 2.4000000000000004;" width="124.8" x="358.4" y="761.9938"/><text fill="#000000" font-family="sans-serif" font-size="22.4" lengthAdjust="spacingAndGlyphs" textLength="102.4" x="369.6" y="797.1393">RECEIVER</text><path d="M20.8,92.9087 L137.6,92.9087 L137.6,107.3087 L121.6,123.3087 L20.8,123.3087 L20.8,92.9087 " fill="#EEEEEE" style="stroke: #000000; stroke-width: 1.6;"/><rect fill="none" height="491.2963" style="stroke: #000000; stroke-width: 3.2;" width="500.8" x="20.8" y="92.9087"/><text fill="#000000" font-family="sans-serif" font-size="20.8" font-weight="bold" lengthAdjust="spacingAndGlyphs" textLength="44.8" x="44.8" y="116.7439">loop</text><text fill="#000000" font-family="sans-serif" font-size="17.6" font-weight="bold" lengthAdjust="spacingAndGlyphs" textLength="94.4" x="161.6" y="114.9229">[every file]</text><polygon fill="#A80036" points="128,155.9679,112,162.3679,128,168.7679,121.6,162.3679" style="stroke: #A80036; stroke-width: 1.6;"/><line style="stroke: #A80036; stroke-width: 1.6;" x1="118.4" x2="422.4" y1="162.3679" y2="162.3679"/><text fill="#000000" font-family="sans-serif" font-size="20.8" lengthAdjust="spacingAndGlyphs" textLength="12.8" x="137.6" y="153.0735">C</text><polygon fill="#A80036" points="404.8,206.6975,420.8,213.0975,404.8,219.4975,411.2,213.0975" style="stroke: #A80036; stroke-width: 1.6;"/><line style="stroke: #A80036; stroke-width: 1.6;" x1="110.4" x2="414.4" y1="213.0975" y2="213.0975"/><text fill="#000000" font-family="sans-serif" font-size="20.8" lengthAdjust="spacingAndGlyphs" textLength="275.2" x="121.6" y="203.8031">block 0 (filename + dim (opt))</text><polygon fill="#A80036" points="128,257.4272,112,263.8272,128,270.2272,121.6,263.8272" style="stroke: #A80036; stroke-width: 1.6;"/><line style="stroke: #A80036; stroke-width: 1.6;" x1="118.4" x2="422.4" y1="263.8272" y2="263.8272"/><text fill="#000000" font-family="sans-serif" font-size="20.8" lengthAdjust="spacingAndGlyphs" textLength="38.4" x="137.6" y="254.5328">ACK</text><polygon fill="#A80036" points="128,308.1568,112,314.5568,128,320.9568,121.6,314.5568" style="stroke: #A80036; stroke-width: 1.6;"/><line style="stroke: #A80036; stroke-width: 1.6;" x1="118.4" x2="422.4" y1="314.5568" y2="314.5568"/><text fill="#000000" font-family="sans-serif" font-size="20.8" lengthAdjust="spacingAndGlyphs" textLength="12.8" x="137.6" y="305.2624">C</text><path d="M36.8,338.5568 L153.6,338.5568 L153.6,352.9568 L137.6,368.9568 L36.8,368.9568 L36.8,338.5568 " fill="#EEEEEE" style="stroke: #000000; stroke-width: 1.6;"/><rect fill="none" height="132.9889" style="stroke: #000000; stroke-width: 3.2;" width="468.8" x="36.8" y="338.5568"/><text fill="#000000" font-family="sans-serif" font-size="20.8" font-weight="bold" lengthAdjust="spacingAndGlyphs" textLength="44.8" x="60.8" y="362.392">loop</text><text fill="#000000" font-family="sans-serif" font-size="17.6" font-weight="bold" lengthAdjust="spacingAndGlyphs" textLength="88" x="177.6" y="360.5711">[N blocks]</text><polygon fill="#A80036" points="404.8,401.6161,420.8,408.0161,404.8,414.4161,411.2,408.0161" style="stroke: #A80036; stroke-width: 1.6;"/><line style="stroke: #A80036; stroke-width: 1.6;" x1="110.4" x2="414.4" y1="408.0161" y2="408.0161"/><text fill="#000000" font-family="sans-serif" font-size="20.8" lengthAdjust="spacingAndGlyphs" textLength="68.8" x="121.6" y="398.7216">block n</text><polygon fill="#A80036" points="128,452.3457,112,458.7457,128,465.1457,121.6,458.7457" style="stroke: #A80036; stroke-width: 1.6;"/><line style="stroke: #A80036; stroke-width: 1.6;" x1="118.4" x2="422.4" y1="458.7457" y2="458.7457"/><text fill="#000000" font-family="sans-serif" font-size="20.8" lengthAdjust="spacingAndGlyphs" textLength="38.4" x="137.6" y="449.4513">ACK</text><polygon fill="#A80036" points="404.8,514.2753,420.8,520.6753,404.8,527.0753,411.2,520.6753" style="stroke: #A80036; stroke-width: 1.6;"/><line style="stroke: #A80036; stroke-width: 1.6;" x1="110.4" x2="414.4" y1="520.6753" y2="520.6753"/><text fill="#000000" font-family="sans-serif" font-size="20.8" lengthAdjust="spacingAndGlyphs" textLength="38.4" x="121.6" y="511.3809">EOT</text><polygon fill="#A80036" points="128,565.0049,112,571.4049,128,577.8049,121.6,571.4049" style="stroke: #A80036; stroke-width: 1.6;"/><line style="stroke: #A80036; stroke-width: 1.6;" x1="118.4" x2="422.4" y1="571.4049" y2="571.4049"/><text fill="#000000" font-family="sans-serif" font-size="20.8" lengthAdjust="spacingAndGlyphs" textLength="38.4" x="137.6" y="562.1105">ACK</text><polygon fill="#A80036" points="128,626.9346,112,633.3346,128,639.7346,121.6,633.3346" style="stroke: #A80036; stroke-width: 1.6;"/><line style="stroke: #A80036; stroke-width: 1.6;" x1="118.4" x2="422.4" y1="633.3346" y2="633.3346"/><text fill="#000000" font-family="sans-serif" font-size="20.8" lengthAdjust="spacingAndGlyphs" textLength="12.8" x="137.6" y="624.0402">C</text><polygon fill="#A80036" points="404.8,677.6642,420.8,684.0642,404.8,690.4642,411.2,684.0642" style="stroke: #A80036; stroke-width: 1.6;"/><line style="stroke: #A80036; stroke-width: 1.6;" x1="110.4" x2="414.4" y1="684.0642" y2="684.0642"/><text fill="#000000" font-family="sans-serif" font-size="20.8" lengthAdjust="spacingAndGlyphs" textLength="147.2" x="121.6" y="674.7698">block 0 (empty)</text><polygon fill="#A80036" points="128,728.3938,112,734.7938,128,741.1938,121.6,734.7938" style="stroke: #A80036; stroke-width: 1.6;"/><line style="stroke: #A80036; stroke-width: 1.6;" x1="118.4" x2="422.4" y1="734.7938" y2="734.7938"/><text fill="#000000" font-family="sans-serif" font-size="20.8" lengthAdjust="spacingAndGlyphs" textLength="38.4" x="137.6" y="725.4994">ACK</text><!--MD5=[74d113f4c36919fdfbe229128233cdb4]
@startuml ymodem

skinparam backgroundColor #FEFEFE
scale 1.6

participant SENDER
participant RECEIVER

loop every file
    RECEIVER -> SENDER: C
    SENDER -> RECEIVER: block 0 (filename + dim (opt))
    SENDER <- RECEIVER: ACK
    SENDER <- RECEIVER: C
    loop N blocks
        SENDER -> RECEIVER: block n
        SENDER <- RECEIVER: ACK
    end
    SENDER -> RECEIVER: EOT
    SENDER <- RECEIVER: ACK
end
RECEIVER -> SENDER: C
SENDER -> RECEIVER: block 0 (empty)
SENDER <- RECEIVER: ACK

@enduml

PlantUML version 1.2020.02(Sun Mar 01 11:22:07 CET 2020)
(GPL source distribution)
Java Runtime: OpenJDK Runtime Environment
JVM: OpenJDK 64-Bit Server VM
Java Version: 21.0.3+9-Ubuntu-1ubuntu1
Operating System: Linux
Default Encoding: UTF-8
Language: en
Country: US
--></g></svg>