<?xml version="1.0" encoding="UTF-8" standalone="no"?><svg xmlns="http://www.w3.org/2000/svg" xmlns:xlink="http://www.w3.org/1999/xlink" contentScriptType="application/ecmascript" contentStyleType="text/css" height="520px" preserveAspectRatio="none" style="width:337px;height:520px;" version="1.1" viewBox="0 0 337 520" width="337px" zoomAndPan="magnify"><defs><filter height="300%" id="f1kx7rb6bj55m7" width="300%" x="-1" y="-1"><feGaussianBlur result="blurOut" stdDeviation="2.0"/><feColorMatrix in="blurOut" result="blurOut2" type="matrix" values="0 0 0 0 0 0 0 0 0 0 0 0 0 0 0 0 0 0 .4 0"/><feOffset dx="4.0" dy="4.0" in="blurOut2" result="blurOut3"/><feBlend in="SourceGraphic" in2="blurOut3" mode="normal"/></filter></defs><g><rect fill="#FFFFFF" filter="url(#f1kx7rb6bj55m7)" height="307.0602" style="stroke: #000000; stroke-width: 2.0;" width="313" x="13" y="58.0679"/><rect fill="#FFFFFF" filter="url(#f1kx7rb6bj55m7)" height="83.118" style="stroke: #000000; stroke-width: 2.0;" width="293" x="23" y="211.598"/><line style="stroke: #A80036; stroke-width: 1.0; stroke-dasharray: 5.0,5.0;" x1="69" x2="69" y1="41.0679" y2="477.2461"/><line style="stroke: #A80036; stroke-width: 1.0; stroke-dasharray: 5.0,5.0;" x1="265" x2="265" y1="41.0679" y2="477.2461"/><rect fill="#FEFECE" filter="url(#f1kx7rb6bj55m7)" height="33.0679" style="stroke: #A80036; stroke-width: 1.5;" width="68" x="33" y="3"/><text fill="#000000" font-family="sans-serif" font-size="14" lengthAdjust="spacingAndGlyphs" textLength="54" x="40" y="24.9659">SENDER</text><rect fill="#FEFECE" filter="url(#f1kx7rb6bj55m7)" height="33.0679" style="stroke: #A80036; stroke-width: 1.5;" width="68" x="33" y="476.2461"/><text fill="#000000" font-family="sans-serif" font-size="14" lengthAdjust="spacingAndGlyphs" textLength="54" x="40" y="498.2121">SENDER</text><rect fill="#FEFECE" filter="url(#f1kx7rb6bj55m7)" height="33.0679" style="stroke: #A80036; stroke-width: 1.5;" width="78" x="224" y="3"/><text fill="#000000" font-family="sans-serif" font-size="14" lengthAdjust="spacingAndGlyphs" textLength="64" x="231" y="24.9659">RECEIVER</text><rect fill="#FEFECE" filter="url(#f1kx7rb6bj55m7)" height="33.0679" style="stroke: #A80036; stroke-width: 1.5;" width="78" x="224" y="476.2461"/><text fill="#000000" font-family="sans-serif" font-size="14" lengthAdjust="spacingAndGlyphs" textLength="64" x="231" y="498.2121">RECEIVER</text><path d="M13,58.0679 L86,58.0679 L86,67.0679 L76,77.0679 L13,77.0679 L13,58.0679 " fill="#EEEEEE" style="stroke: #000000; stroke-width: 1.0;"/><rect fill="none" height="307.0602" style="stroke: #000000; stroke-width: 2.0;" width="313" x="13" y="58.0679"/><text fill="#000000" font-family="sans-serif" font-size="13" font-weight="bold" lengthAdjust="spacingAndGlyphs" textLength="28" x="28" y="72.9649">loop</text><text fill="#000000" font-family="sans-serif" font-size="11" font-weight="bold" lengthAdjust="spacingAndGlyphs" textLength="59" x="101" y="71.8268">[every file]</text><polygon fill="#A80036" points="80,97.4799,70,101.4799,80,105.4799,76,101.4799" style="stroke: #A80036; stroke-width: 1.0;"/><line style="stroke: #A80036; stroke-width: 1.0;" x1="74" x2="264" y1="101.4799" y2="101.4799"/><text fill="#000000" font-family="sans-serif" font-size="13" lengthAdjust="spacingAndGlyphs" textLength="8" x="86" y="95.6709">C</text><polygon fill="#A80036" points="253,129.186,263,133.186,253,137.186,257,133.186" style="stroke: #A80036; stroke-width: 1.0;"/><line style="stroke: #A80036; stroke-width: 1.0;" x1="69" x2="259" y1="133.186" y2="133.186"/><text fill="#000000" font-family="sans-serif" font-size="13" lengthAdjust="spacingAndGlyphs" textLength="172" x="76" y="127.377">block 0 (filename + dim (opt))</text><polygon fill="#A80036" points="80,160.892,70,164.892,80,168.892,76,164.892" style="stroke: #A80036; stroke-width: 1.0;"/><line style="stroke: #A80036; stroke-width: 1.0;" x1="74" x2="264" y1="164.892" y2="164.892"/><text fill="#000000" font-family="sans-serif" font-size="13" lengthAdjust="spacingAndGlyphs" textLength="24" x="86" y="159.083">ACK</text><polygon fill="#A80036" points="80,192.598,70,196.598,80,200.598,76,196.598" style="stroke: #A80036; stroke-width: 1.0;"/><line style="stroke: #A80036; stroke-width: 1.0;" x1="74" x2="264" y1="196.598" y2="196.598"/><text fill="#000000" font-family="sans-serif" font-size="13" lengthAdjust="spacingAndGlyphs" textLength="8" x="86" y="190.789">C</text><path d="M23,211.598 L96,211.598 L96,220.598 L86,230.598 L23,230.598 L23,211.598 " fill="#EEEEEE" style="stroke: #000000; stroke-width: 1.0;"/><rect fill="none" height="83.118" style="stroke: #000000; stroke-width: 2.0;" width="293" x="23" y="211.598"/><text fill="#000000" font-family="sans-serif" font-size="13" font-weight="bold" lengthAdjust="spacingAndGlyphs" textLength="28" x="38" y="226.495">loop</text><text fill="#000000" font-family="sans-serif" font-size="11" font-weight="bold" lengthAdjust="spacingAndGlyphs" textLength="55" x="111" y="225.3569">[N blocks]</text><polygon fill="#A80036" points="253,251.01,263,255.01,253,259.01,257,255.01" style="stroke: #A80036; stroke-width: 1.0;"/><line style="stroke: #A80036; stroke-width: 1.0;" x1="69" x2="259" y1="255.01" y2="255.01"/><text fill="#000000" font-family="sans-serif" font-size="13" lengthAdjust="spacingAndGlyphs" textLength="43" x="76" y="249.201">block n</text><polygon fill="#A80036" points="80,282.716,70,286.716,80,290.716,76,286.716" style="stroke: #A80036; stroke-width: 1.0;"/><line style="stroke: #A80036; stroke-width: 1.0;" x1="74" x2="264" y1="286.716" y2="286.716"/><text fill="#000000" font-family="sans-serif" font-size="13" lengthAdjust="spacingAndGlyphs" textLength="24" x="86" y="280.907">ACK</text><polygon fill="#A80036" points="253,321.4221,263,325.4221,253,329.4221,257,325.4221" style="stroke: #A80036; stroke-width: 1.0;"/><line style="stroke: #A80036; stroke-width: 1.0;" x1="69" x2="259" y1="325.4221" y2="325.4221"/><text fill="#000000" font-family="sans-serif" font-size="13" lengthAdjust="spacingAndGlyphs" textLength="24" x="76" y="319.6131">EOT</text><polygon fill="#A80036" points="80,353.1281,70,357.1281,80,361.1281,76,357.1281" style="stroke: #A80036; stroke-width: 1.0;"/><line style="stroke: #A80036; stroke-width: 1.0;" x1="74" x2="264" y1="357.1281" y2="357.1281"/><text fill="#000000" font-family="sans-serif" font-size="13" lengthAdjust="spacingAndGlyphs" textLength="24" x="86" y="351.3191">ACK</text><polygon fill="#A80036" points="80,391.8341,70,395.8341,80,399.8341,76,395.8341" style="stroke: #A80036; stroke-width: 1.0;"/><line style="stroke: #A80036; stroke-width: 1.0;" x1="74" x2="264" y1="395.8341" y2="395.8341"/><text fill="#000000" font-family="sans-serif" font-size="13" lengthAdjust="spacingAndGlyphs" textLength="8" x="86" y="390.0251">C</text><polygon fill="#A80036" points="253,423.5401,263,427.5401,253,431.5401,257,427.5401" style="stroke: #A80036; stroke-width: 1.0;"/><line style="stroke: #A80036; stroke-width: 1.0;" x1="69" x2="259" y1="427.5401" y2="427.5401"/><text fill="#000000" font-family="sans-serif" font-size="13" lengthAdjust="spacingAndGlyphs" textLength="92" x="76" y="421.7311">block 0 (empty)</text><polygon fill="#A80036" points="80,455.2461,70,459.2461,80,463.2461,76,459.2461" style="stroke: #A80036; stroke-width: 1.0;"/><line style="stroke: #A80036; stroke-width: 1.0;" x1="74" x2="264" y1="459.2461" y2="459.2461"/><text fill="#000000" font-family="sans-serif" font-size="13" lengthAdjust="spacingAndGlyphs" textLength="24" x="86" y="453.4371">ACK</text><!--MD5=[2a9ae8cf143f616351277d791f497aff]
@startuml ymodem
participant SENDER
participant RECEIVER



loop every file
    RECEIVER -> SENDER: C
    SENDER -> RECEIVER: block 0 (filename + dim (opt))
    SENDER <- RECEIVER: ACK
    SENDER <- RECEIVER: C
    loop N blocks
        SENDER -> RECEIVER: block n
        SENDER <- RECEIVER: ACK
    end
    SENDER -> RECEIVER: EOT
    SENDER <- RECEIVER: ACK
end
RECEIVER -> SENDER: C
SENDER -> RECEIVER: block 0 (empty)
SENDER <- RECEIVER: ACK

@enduml

PlantUML version 1.2020.02(Sun Mar 01 11:22:07 CET 2020)
(GPL source distribution)
Java Runtime: OpenJDK Runtime Environment
JVM: OpenJDK 64-Bit Server VM
Java Version: 17.0.10+7-Ubuntu-123.10.1
Operating System: Linux
Default Encoding: UTF-8
Language: en
Country: US
--></g></svg>